<mxfile host="65bd71144e">
    <diagram name="Page-1" id="2cc2dc42-3aac-f2a9-1cec-7a8b7cbee084">
        <mxGraphModel dx="1348" dy="584" grid="1" gridSize="10" guides="1" tooltips="1" connect="1" arrows="1" fold="1" page="1" pageScale="1" pageWidth="1100" pageHeight="850" background="none" math="0" shadow="0">
            <root>
                <mxCell id="0"/>
                <mxCell id="1" parent="0"/>
                <mxCell id="7026571954dc6520-1" value="" style="strokeWidth=1;shadow=0;dashed=0;align=center;html=1;shape=mxgraph.mockup.containers.browserWindow;rSize=0;strokeColor=#666666;mainText=,;recursiveResize=0;rounded=0;labelBackgroundColor=none;fontFamily=Verdana;fontSize=12;fontColor=#000000;" parent="1" vertex="1">
                    <mxGeometry x="30" y="20" width="1050" height="2390" as="geometry"/>
                </mxCell>
                <mxCell id="7026571954dc6520-2" value="Page 1" style="strokeWidth=1;shadow=0;dashed=0;align=center;html=1;shape=mxgraph.mockup.containers.anchor;fontSize=17;fontColor=#666666;align=left;" parent="7026571954dc6520-1" vertex="1">
                    <mxGeometry x="60" y="12" width="110" height="26" as="geometry"/>
                </mxCell>
                <mxCell id="7026571954dc6520-3" value="https://www.default.com" style="strokeWidth=1;shadow=0;dashed=0;align=center;html=1;shape=mxgraph.mockup.containers.anchor;rSize=0;fontSize=17;fontColor=#666666;align=left;" parent="7026571954dc6520-1" vertex="1">
                    <mxGeometry x="130" y="60" width="250" height="26" as="geometry"/>
                </mxCell>
                <mxCell id="7026571954dc6520-4" value="Website Name" style="text;html=1;points=[];align=center;verticalAlign=top;spacingTop=-4;fontSize=30;fontFamily=Verdana" parent="7026571954dc6520-1" vertex="1">
                    <mxGeometry x="350" y="130" width="340" height="50" as="geometry"/>
                </mxCell>
                <mxCell id="7026571954dc6520-15" value="" style="verticalLabelPosition=bottom;shadow=0;dashed=0;align=center;html=1;verticalAlign=top;strokeWidth=1;shape=mxgraph.mockup.markup.line;strokeColor=#999999;rounded=0;labelBackgroundColor=none;fillColor=#ffffff;fontFamily=Verdana;fontSize=12;fontColor=#000000;" parent="7026571954dc6520-1" vertex="1">
                    <mxGeometry x="55" y="180" width="930" height="20" as="geometry"/>
                </mxCell>
                <mxCell id="7026571954dc6520-21" value="" style="verticalLabelPosition=bottom;shadow=0;dashed=0;align=center;html=1;verticalAlign=top;strokeWidth=1;shape=mxgraph.mockup.markup.line;strokeColor=#999999;rounded=0;labelBackgroundColor=none;fillColor=#ffffff;fontFamily=Verdana;fontSize=12;fontColor=#000000;" parent="7026571954dc6520-1" vertex="1">
                    <mxGeometry y="580" width="1050" height="20" as="geometry"/>
                </mxCell>
                <mxCell id="7026571954dc6520-31" value="News" style="text;html=1;points=[];align=left;verticalAlign=top;spacingTop=-4;fontSize=20;fontFamily=Verdana;fontStyle=1" parent="7026571954dc6520-1" vertex="1">
                    <mxGeometry x="50" y="450" width="170" height="30" as="geometry"/>
                </mxCell>
                <mxCell id="7026571954dc6520-22" value="" style="verticalLabelPosition=bottom;shadow=0;dashed=0;align=center;html=1;verticalAlign=top;strokeWidth=1;shape=mxgraph.mockup.graphics.simpleIcon;strokeColor=#999999;fillColor=#ffffff;rounded=0;labelBackgroundColor=none;fontFamily=Verdana;fontSize=12;fontColor=#000000;" parent="7026571954dc6520-1" vertex="1">
                    <mxGeometry x="50" y="240" width="935" height="200" as="geometry"/>
                </mxCell>
                <mxCell id="JBzfn1hjmEhw2GoDKSxl-3" value="YYYY.MM.DD" style="text;html=1;points=[];align=left;verticalAlign=top;spacingTop=-4;fontSize=15;fontFamily=Verdana" parent="7026571954dc6520-1" vertex="1">
                    <mxGeometry x="280" y="456" width="170" height="30" as="geometry"/>
                </mxCell>
                <mxCell id="JBzfn1hjmEhw2GoDKSxl-5" value="Webサイトを公開しました。" style="text;html=1;points=[];align=left;verticalAlign=top;spacingTop=-4;fontSize=15;fontFamily=Verdana" parent="7026571954dc6520-1" vertex="1">
                    <mxGeometry x="530" y="456" width="410" height="30" as="geometry"/>
                </mxCell>
                <mxCell id="JBzfn1hjmEhw2GoDKSxl-6" value="YYYY.MM.DD" style="text;html=1;points=[];align=left;verticalAlign=top;spacingTop=-4;fontSize=15;fontFamily=Verdana" parent="7026571954dc6520-1" vertex="1">
                    <mxGeometry x="280" y="498" width="170" height="30" as="geometry"/>
                </mxCell>
                <mxCell id="JBzfn1hjmEhw2GoDKSxl-7" value="講演会を開きました。" style="text;html=1;points=[];align=left;verticalAlign=top;spacingTop=-4;fontSize=15;fontFamily=Verdana;fontColor=#0000FF;fontStyle=4" parent="7026571954dc6520-1" vertex="1">
                    <mxGeometry x="530" y="500" width="410" height="30" as="geometry"/>
                </mxCell>
                <mxCell id="JBzfn1hjmEhw2GoDKSxl-9" value="YYYY.MM.DD" style="text;html=1;points=[];align=left;verticalAlign=top;spacingTop=-4;fontSize=15;fontFamily=Verdana" parent="7026571954dc6520-1" vertex="1">
                    <mxGeometry x="280" y="540" width="170" height="30" as="geometry"/>
                </mxCell>
                <mxCell id="JBzfn1hjmEhw2GoDKSxl-10" value="Webサイトをリニューアルしました。" style="text;html=1;points=[];align=left;verticalAlign=top;spacingTop=-4;fontSize=15;fontFamily=Verdana" parent="7026571954dc6520-1" vertex="1">
                    <mxGeometry x="530" y="540" width="410" height="30" as="geometry"/>
                </mxCell>
                <mxCell id="JBzfn1hjmEhw2GoDKSxl-11" value="" style="html=1;verticalLabelPosition=bottom;labelBackgroundColor=#ffffff;verticalAlign=top;shadow=0;dashed=0;strokeWidth=2;shape=mxgraph.ios7.misc.scroll_(vertical);fillColor=#a0a0a0;fontSize=20;fontColor=#0000FF;" parent="7026571954dc6520-1" vertex="1">
                    <mxGeometry x="980" y="456" width="4" height="30" as="geometry"/>
                </mxCell>
                <mxCell id="JBzfn1hjmEhw2GoDKSxl-12" value="News" style="text;html=1;points=[];align=center;verticalAlign=top;spacingTop=-4;fontSize=15;fontFamily=Verdana" parent="7026571954dc6520-1" vertex="1">
                    <mxGeometry x="150" y="200" width="90" height="30" as="geometry"/>
                </mxCell>
                <mxCell id="JBzfn1hjmEhw2GoDKSxl-13" value="About" style="text;html=1;points=[];align=center;verticalAlign=top;spacingTop=-4;fontSize=15;fontFamily=Verdana" parent="7026571954dc6520-1" vertex="1">
                    <mxGeometry x="360" y="200" width="90" height="30" as="geometry"/>
                </mxCell>
                <mxCell id="JBzfn1hjmEhw2GoDKSxl-14" value="Case Study" style="text;html=1;points=[];align=center;verticalAlign=top;spacingTop=-4;fontSize=15;fontFamily=Verdana" parent="7026571954dc6520-1" vertex="1">
                    <mxGeometry x="570" y="200" width="90" height="30" as="geometry"/>
                </mxCell>
                <mxCell id="JBzfn1hjmEhw2GoDKSxl-15" value="Member" style="text;html=1;points=[];align=center;verticalAlign=top;spacingTop=-4;fontSize=15;fontFamily=Verdana" parent="7026571954dc6520-1" vertex="1">
                    <mxGeometry x="790" y="200" width="90" height="30" as="geometry"/>
                </mxCell>
                <mxCell id="JBzfn1hjmEhw2GoDKSxl-16" value="About" style="text;html=1;points=[];align=left;verticalAlign=top;spacingTop=-4;fontSize=20;fontFamily=Verdana;fontStyle=1" parent="7026571954dc6520-1" vertex="1">
                    <mxGeometry x="50" y="610" width="170" height="30" as="geometry"/>
                </mxCell>
                <mxCell id="JBzfn1hjmEhw2GoDKSxl-17" value="キャッチコピーキャッチコピーキャッチコピーキャッチコピーキャッチコピー&lt;br&gt;キャッチコピーキャッチコピーキャッチコピーキャッチコピーキャッチコピー&lt;br&gt;キャッチコピーキャッチコピーキャッチコピーキャッチコピーキャッチコピー&lt;br&gt;キャッチコピーキャッチコピーキャッチコピーキャッチコピーキャッチコピー" style="text;html=1;points=[];align=left;verticalAlign=top;spacingTop=-4;fontSize=20;fontFamily=Verdana;fontStyle=1" parent="7026571954dc6520-1" vertex="1">
                    <mxGeometry x="270" y="610" width="710" height="100" as="geometry"/>
                </mxCell>
                <mxCell id="JBzfn1hjmEhw2GoDKSxl-18" value="" style="verticalLabelPosition=bottom;shadow=0;dashed=0;align=center;html=1;verticalAlign=top;strokeWidth=1;shape=mxgraph.mockup.markup.line;strokeColor=#999999;rounded=0;labelBackgroundColor=none;fillColor=#ffffff;fontFamily=Verdana;fontSize=12;fontColor=#000000;" parent="7026571954dc6520-1" vertex="1">
                    <mxGeometry x="-1" y="960" width="1050" height="20" as="geometry"/>
                </mxCell>
                <mxCell id="JBzfn1hjmEhw2GoDKSxl-19" value="Case Study" style="text;html=1;points=[];align=left;verticalAlign=top;spacingTop=-4;fontSize=20;fontFamily=Verdana;fontStyle=1" parent="7026571954dc6520-1" vertex="1">
                    <mxGeometry x="50" y="1000" width="170" height="30" as="geometry"/>
                </mxCell>
                <mxCell id="JBzfn1hjmEhw2GoDKSxl-20" value="" style="verticalLabelPosition=bottom;shadow=0;dashed=0;align=center;html=1;verticalAlign=top;strokeWidth=1;shape=mxgraph.mockup.graphics.simpleIcon;strokeColor=#999999;fillColor=#ffffff;rounded=0;labelBackgroundColor=none;fontFamily=Verdana;fontSize=12;fontColor=#000000;" parent="7026571954dc6520-1" vertex="1">
                    <mxGeometry x="500" y="1070" width="465" height="200" as="geometry"/>
                </mxCell>
                <mxCell id="JBzfn1hjmEhw2GoDKSxl-21" value="&lt;span style=&quot;font-weight: normal&quot;&gt;Title&lt;br&gt;descriptiondescription&lt;/span&gt;&lt;span style=&quot;font-weight: 400&quot;&gt;description&lt;/span&gt;&lt;span style=&quot;font-weight: 400&quot;&gt;description&lt;/span&gt;&lt;span style=&quot;font-weight: 400&quot;&gt;&lt;br&gt;&lt;/span&gt;&lt;span style=&quot;font-weight: 400&quot;&gt;description&lt;/span&gt;&lt;span style=&quot;font-weight: 400&quot;&gt;description&lt;/span&gt;&lt;span style=&quot;font-weight: 400&quot;&gt;description&lt;/span&gt;&lt;span style=&quot;font-weight: 400&quot;&gt;description&lt;/span&gt;&lt;span style=&quot;font-weight: 400&quot;&gt;&lt;br&gt;&lt;/span&gt;&lt;span style=&quot;font-weight: 400&quot;&gt;description&lt;/span&gt;&lt;span style=&quot;font-weight: 400&quot;&gt;description&lt;/span&gt;&lt;span style=&quot;font-weight: 400&quot;&gt;description&lt;/span&gt;&lt;span style=&quot;font-weight: 400&quot;&gt;description&lt;/span&gt;&lt;span style=&quot;font-weight: 400&quot;&gt;&lt;br&gt;&lt;/span&gt;&lt;span style=&quot;font-weight: 400&quot;&gt;description&lt;/span&gt;&lt;span style=&quot;font-weight: 400&quot;&gt;description&lt;/span&gt;&lt;span style=&quot;font-weight: 400&quot;&gt;description&lt;/span&gt;&lt;span style=&quot;font-weight: 400&quot;&gt;description&lt;/span&gt;&lt;span style=&quot;font-weight: 400&quot;&gt;&lt;br&gt;&lt;/span&gt;&lt;span style=&quot;font-weight: 400&quot;&gt;description&lt;/span&gt;&lt;span style=&quot;font-weight: 400&quot;&gt;description&lt;/span&gt;&lt;span style=&quot;font-weight: 400&quot;&gt;description&lt;/span&gt;&lt;span style=&quot;font-weight: 400&quot;&gt;description&lt;/span&gt;&lt;span style=&quot;font-weight: 400&quot;&gt;&lt;br&gt;&lt;/span&gt;" style="text;html=1;points=[];align=left;verticalAlign=top;spacingTop=-4;fontSize=20;fontFamily=Verdana;fontStyle=1" parent="7026571954dc6520-1" vertex="1">
                    <mxGeometry x="50" y="1070" width="440" height="150" as="geometry"/>
                </mxCell>
                <mxCell id="JBzfn1hjmEhw2GoDKSxl-22" value="" style="verticalLabelPosition=bottom;shadow=0;dashed=0;align=center;html=1;verticalAlign=top;strokeWidth=1;shape=mxgraph.mockup.graphics.simpleIcon;strokeColor=#999999;fillColor=#ffffff;rounded=0;labelBackgroundColor=none;fontFamily=Verdana;fontSize=12;fontColor=#000000;" parent="7026571954dc6520-1" vertex="1">
                    <mxGeometry x="50" y="1310" width="420" height="200" as="geometry"/>
                </mxCell>
                <mxCell id="JBzfn1hjmEhw2GoDKSxl-24" value="More Details" style="text;html=1;strokeColor=none;fillColor=none;align=center;verticalAlign=middle;whiteSpace=wrap;rounded=0;fontSize=20;fontColor=#0000FF;fontStyle=4" parent="7026571954dc6520-1" vertex="1">
                    <mxGeometry x="30" y="1230" width="150" height="30" as="geometry"/>
                </mxCell>
                <mxCell id="JBzfn1hjmEhw2GoDKSxl-25" value="More Details" style="text;html=1;strokeColor=none;fillColor=none;align=center;verticalAlign=middle;whiteSpace=wrap;rounded=0;fontSize=20;fontColor=#0000FF;fontStyle=4" parent="7026571954dc6520-1" vertex="1">
                    <mxGeometry x="500" y="1480" width="150" height="30" as="geometry"/>
                </mxCell>
                <mxCell id="JBzfn1hjmEhw2GoDKSxl-26" value="" style="verticalLabelPosition=bottom;shadow=0;dashed=0;align=center;html=1;verticalAlign=top;strokeWidth=1;shape=mxgraph.mockup.graphics.simpleIcon;strokeColor=#999999;fillColor=#ffffff;rounded=0;labelBackgroundColor=none;fontFamily=Verdana;fontSize=12;fontColor=#000000;" parent="7026571954dc6520-1" vertex="1">
                    <mxGeometry x="805" y="1478" width="130" height="40" as="geometry"/>
                </mxCell>
                <mxCell id="JBzfn1hjmEhw2GoDKSxl-27" value="" style="verticalLabelPosition=bottom;shadow=0;dashed=0;align=center;html=1;verticalAlign=top;strokeWidth=1;shape=mxgraph.mockup.graphics.simpleIcon;strokeColor=#999999;fillColor=#ffffff;rounded=0;labelBackgroundColor=none;fontFamily=Verdana;fontSize=12;fontColor=#000000;" parent="7026571954dc6520-1" vertex="1">
                    <mxGeometry x="270" y="740" width="170" height="80" as="geometry"/>
                </mxCell>
                <mxCell id="JBzfn1hjmEhw2GoDKSxl-28" value="" style="verticalLabelPosition=bottom;shadow=0;dashed=0;align=center;html=1;verticalAlign=top;strokeWidth=1;shape=mxgraph.mockup.graphics.simpleIcon;strokeColor=#999999;fillColor=#ffffff;rounded=0;labelBackgroundColor=none;fontFamily=Verdana;fontSize=12;fontColor=#000000;" parent="7026571954dc6520-1" vertex="1">
                    <mxGeometry x="448" y="740" width="170" height="80" as="geometry"/>
                </mxCell>
                <mxCell id="JBzfn1hjmEhw2GoDKSxl-37" value="" style="verticalLabelPosition=bottom;shadow=0;dashed=0;align=center;html=1;verticalAlign=top;strokeWidth=1;shape=mxgraph.mockup.markup.line;strokeColor=#999999;rounded=0;labelBackgroundColor=none;fillColor=#ffffff;fontFamily=Verdana;fontSize=12;fontColor=#000000;" parent="7026571954dc6520-1" vertex="1">
                    <mxGeometry x="-1" y="1590" width="1050" height="20" as="geometry"/>
                </mxCell>
                <mxCell id="JBzfn1hjmEhw2GoDKSxl-38" value="Member" style="text;html=1;points=[];align=left;verticalAlign=top;spacingTop=-4;fontSize=20;fontFamily=Verdana;fontStyle=1" parent="7026571954dc6520-1" vertex="1">
                    <mxGeometry x="55" y="1630" width="170" height="30" as="geometry"/>
                </mxCell>
                <mxCell id="JBzfn1hjmEhw2GoDKSxl-39" value="" style="verticalLabelPosition=bottom;shadow=0;dashed=0;align=center;html=1;verticalAlign=top;strokeWidth=1;shape=mxgraph.mockup.graphics.simpleIcon;strokeColor=#999999;fillColor=#ffffff;rounded=0;labelBackgroundColor=none;fontFamily=Verdana;fontSize=12;fontColor=#000000;" parent="7026571954dc6520-1" vertex="1">
                    <mxGeometry x="70" y="1700" width="190" height="170" as="geometry"/>
                </mxCell>
                <mxCell id="JBzfn1hjmEhw2GoDKSxl-40" value="&lt;span style=&quot;font-weight: normal&quot;&gt;Name&lt;br&gt;&lt;font style=&quot;font-size: 19px&quot;&gt;Role&lt;/font&gt;&lt;br&gt;descriptiondescription&lt;/span&gt;&lt;span style=&quot;font-weight: 400&quot;&gt;description&lt;/span&gt;&lt;span style=&quot;font-weight: 400&quot;&gt;description&lt;/span&gt;&lt;span style=&quot;font-weight: 400&quot;&gt;description&lt;/span&gt;&lt;span style=&quot;font-weight: 400&quot;&gt;&lt;br&gt;&lt;/span&gt;&lt;span style=&quot;font-weight: 400&quot;&gt;description&lt;/span&gt;&lt;span style=&quot;font-weight: 400&quot;&gt;description&lt;/span&gt;&lt;span style=&quot;font-weight: 400&quot;&gt;description&lt;/span&gt;&lt;span style=&quot;font-weight: 400&quot;&gt;description&lt;/span&gt;&lt;span style=&quot;font-weight: 400&quot;&gt;description&lt;/span&gt;&lt;span style=&quot;font-weight: 400&quot;&gt;&lt;br&gt;&lt;/span&gt;&lt;span style=&quot;font-weight: 400&quot;&gt;description&lt;/span&gt;&lt;span style=&quot;font-weight: 400&quot;&gt;description&lt;/span&gt;&lt;span style=&quot;font-weight: 400&quot;&gt;description&lt;/span&gt;&lt;span style=&quot;font-weight: 400&quot;&gt;description&lt;/span&gt;&lt;span style=&quot;font-weight: 400&quot;&gt;description&lt;/span&gt;&lt;span style=&quot;font-weight: 400&quot;&gt;&lt;br&gt;&lt;/span&gt;&lt;span style=&quot;font-weight: 400&quot;&gt;description&lt;/span&gt;&lt;span style=&quot;font-weight: 400&quot;&gt;description&lt;/span&gt;&lt;span style=&quot;font-weight: 400&quot;&gt;description&lt;/span&gt;&lt;span style=&quot;font-weight: 400&quot;&gt;description&lt;/span&gt;&lt;span style=&quot;font-weight: 400&quot;&gt;description&lt;/span&gt;&lt;span style=&quot;font-weight: 400&quot;&gt;&lt;br&gt;&lt;/span&gt;&lt;span style=&quot;font-weight: 400&quot;&gt;description&lt;/span&gt;&lt;span style=&quot;font-weight: 400&quot;&gt;description&lt;/span&gt;&lt;span style=&quot;font-weight: 400&quot;&gt;description&lt;/span&gt;&lt;span style=&quot;font-weight: 400&quot;&gt;description&lt;/span&gt;&lt;span style=&quot;font-weight: 400&quot;&gt;description&lt;/span&gt;&lt;span style=&quot;font-weight: 400&quot;&gt;&lt;br&gt;&lt;/span&gt;" style="text;html=1;points=[];align=left;verticalAlign=top;spacingTop=-4;fontSize=20;fontFamily=Verdana;fontStyle=1" parent="7026571954dc6520-1" vertex="1">
                    <mxGeometry x="355" y="1700" width="540" height="160" as="geometry"/>
                </mxCell>
                <mxCell id="JBzfn1hjmEhw2GoDKSxl-41" value="" style="verticalLabelPosition=bottom;shadow=0;dashed=0;align=center;html=1;verticalAlign=top;strokeWidth=1;shape=mxgraph.mockup.graphics.simpleIcon;strokeColor=#999999;fillColor=#ffffff;rounded=0;labelBackgroundColor=none;fontFamily=Verdana;fontSize=12;fontColor=#000000;" parent="7026571954dc6520-1" vertex="1">
                    <mxGeometry x="70" y="1935" width="190" height="170" as="geometry"/>
                </mxCell>
                <mxCell id="JBzfn1hjmEhw2GoDKSxl-42" value="&lt;span style=&quot;font-weight: normal&quot;&gt;Name&lt;br&gt;&lt;font style=&quot;font-size: 19px&quot;&gt;Role&lt;/font&gt;&lt;br&gt;descriptiondescription&lt;/span&gt;&lt;span style=&quot;font-weight: 400&quot;&gt;description&lt;/span&gt;&lt;span style=&quot;font-weight: 400&quot;&gt;description&lt;/span&gt;&lt;span style=&quot;font-weight: 400&quot;&gt;description&lt;/span&gt;&lt;span style=&quot;font-weight: 400&quot;&gt;&lt;br&gt;&lt;/span&gt;&lt;span style=&quot;font-weight: 400&quot;&gt;description&lt;/span&gt;&lt;span style=&quot;font-weight: 400&quot;&gt;description&lt;/span&gt;&lt;span style=&quot;font-weight: 400&quot;&gt;description&lt;/span&gt;&lt;span style=&quot;font-weight: 400&quot;&gt;description&lt;/span&gt;&lt;span style=&quot;font-weight: 400&quot;&gt;description&lt;/span&gt;&lt;span style=&quot;font-weight: 400&quot;&gt;&lt;br&gt;&lt;/span&gt;&lt;span style=&quot;font-weight: 400&quot;&gt;description&lt;/span&gt;&lt;span style=&quot;font-weight: 400&quot;&gt;description&lt;/span&gt;&lt;span style=&quot;font-weight: 400&quot;&gt;description&lt;/span&gt;&lt;span style=&quot;font-weight: 400&quot;&gt;description&lt;/span&gt;&lt;span style=&quot;font-weight: 400&quot;&gt;description&lt;/span&gt;&lt;span style=&quot;font-weight: 400&quot;&gt;&lt;br&gt;&lt;/span&gt;&lt;span style=&quot;font-weight: 400&quot;&gt;description&lt;/span&gt;&lt;span style=&quot;font-weight: 400&quot;&gt;description&lt;/span&gt;&lt;span style=&quot;font-weight: 400&quot;&gt;description&lt;/span&gt;&lt;span style=&quot;font-weight: 400&quot;&gt;description&lt;/span&gt;&lt;span style=&quot;font-weight: 400&quot;&gt;description&lt;/span&gt;&lt;span style=&quot;font-weight: 400&quot;&gt;&lt;br&gt;&lt;/span&gt;&lt;span style=&quot;font-weight: 400&quot;&gt;description&lt;/span&gt;&lt;span style=&quot;font-weight: 400&quot;&gt;description&lt;/span&gt;&lt;span style=&quot;font-weight: 400&quot;&gt;description&lt;/span&gt;&lt;span style=&quot;font-weight: 400&quot;&gt;description&lt;/span&gt;&lt;span style=&quot;font-weight: 400&quot;&gt;description&lt;/span&gt;&lt;span style=&quot;font-weight: 400&quot;&gt;&lt;br&gt;&lt;/span&gt;" style="text;html=1;points=[];align=left;verticalAlign=top;spacingTop=-4;fontSize=20;fontFamily=Verdana;fontStyle=1" parent="7026571954dc6520-1" vertex="1">
                    <mxGeometry x="355" y="1935" width="540" height="160" as="geometry"/>
                </mxCell>
                <mxCell id="JBzfn1hjmEhw2GoDKSxl-46" value="" style="dashed=0;outlineConnect=0;html=1;align=center;labelPosition=center;verticalLabelPosition=bottom;verticalAlign=top;shape=mxgraph.weblogos.twitter;fillColor=#1DA1F2;strokeColor=none;fontSize=18;fontColor=#0000FF;" parent="7026571954dc6520-1" vertex="1">
                    <mxGeometry x="340" y="2180" width="40" height="40" as="geometry"/>
                </mxCell>
                <mxCell id="JBzfn1hjmEhw2GoDKSxl-47" value="" style="verticalLabelPosition=bottom;html=1;verticalAlign=top;align=center;strokeColor=none;fillColor=#00BEF2;shape=mxgraph.azure.github_code;pointerEvents=1;fontSize=18;fontColor=#0000FF;" parent="7026571954dc6520-1" vertex="1">
                    <mxGeometry x="500" y="2170" width="50" height="50" as="geometry"/>
                </mxCell>
                <mxCell id="JBzfn1hjmEhw2GoDKSxl-48" value="" style="shape=image;html=1;verticalAlign=top;verticalLabelPosition=bottom;labelBackgroundColor=#ffffff;imageAspect=0;aspect=fixed;image=https://cdn4.iconfinder.com/data/icons/logos-brands-5/24/qiita-128.png;fontSize=18;fontColor=#0000FF;" parent="7026571954dc6520-1" vertex="1">
                    <mxGeometry x="660" y="2151" width="88" height="88" as="geometry"/>
                </mxCell>
                <mxCell id="JBzfn1hjmEhw2GoDKSxl-43" value="" style="shape=image;verticalLabelPosition=bottom;labelBackgroundColor=#ffffff;verticalAlign=top;aspect=fixed;imageAspect=0;image=data:image/png,iVBORw0KGgoAAAANSUhEUgAAAWsAAACMCAIAAAA1Eh+hAAAdDElEQVR4Ae1d/28bx5XvX9N1rgXUux/q3g9Xp4dD3PYAJ/3hLjng6uYKJFR+OA+doF4lRbVyi3CV9E5Um5aknYZU7FpU4lqSbURUfbWkGDUpBzEpBw1lAxdSBlqSP1xE/3DV/HLlHt6b/TK7XFIUQ4e79OMPNne5M/Pm82Y+++bN6L0vGPQhBAgBQqBfBL7Qb0EqRwgQAoSAQQxCg4AQIAT6R4AYpH/sqCQhQAgQg9AYIAQIgf4RIAbpHzsqSQgQAsQgNAYIAUKgfwSIQfrHjkoSAoQAMQiNAUKAEOgfAWKQ/rGjkoQAIUAMQmOAECAE+keAGKR/7KgkIUAIEIPQGCAECIH+ESAG6R87KkkIEALEIDQGCAFCoH8EiEH6x45KEgKEADEIjQFCgBDoHwFikP6xo5KEACFADEJjgBAgBPpHgBikf+yoJCFACBCD0BggBAiB/hEgBukfOypJCBACxCA0BggBQqB/BIhB+seOShIChAAxCI0BQoAQ6B8BYpD+saOShAAhQAxCY4AQIAT6R4AYpH/sqCQhQAgQg9AYIAQIgf4RIAbpHzsqSQgQAsQgNAYIAUKgfwSIQfrHjkoSAoQAMQiNAUKAEOgfAWKQ/rGjkoQAIUAMQmOAECAE+keAGKR/7KgkIUAIEIOM9BioXTyuHFI6fU7+bnCdbxQymUKjNbgKqaZwIEAMEg499SmlYJDHj2u6z2d69eM+q20vtvub48rhia2/tP9Cd0YbAWKQkdavYJB/+3XzYfcyPzmmfJUY5GHDHMD6iUECqJTBidQrg/DtldcjT3/z8NghRRk78uRxNXWz7paiWXxX+95TR+ABZezIse9NXSg1xZqFrzw/5qyTDn192rJEePmKHnnm6OGvtBWBqtdOfOWLf/XvG8078eN/P6Yo0ff/z90gXYUDAWKQcOipTyl7Y5DizL+OKcrXnv1RcimXyy3ET3xnTFEOv/Abm0R4/tWjiqI8flzPLOZyS9nYC3D5jR9scCCR5vZm9tQ/KsrYs6nrhUKpylHY4i+eVJSxp07EsyvruVx25uSTY4egiMk7Rv7U15THvque+PbR8VeTmcz6Dq2A+lTycIsRgwwX/4fcei8MUvv108oh5V9+sePIwtdO/IOifHXiFtoFrY9mnviS8tffXZYcpbuLYHh882d/EIVq6ePwvGV9GK17iWNfVr716pZTp8HzPzoCRT4U94qnvq4gTz30FZYkA30dOALEIAOHNEgV9sAgtfnnFEV59vL/uOQuvnpYUY6cxtle/sVRRRnzbNzs/dfzY4eU75i842WQMhggR0//vil/dm+c+upjdpHi5BFFGaPFiwv2EF4Qg4RQab2LLBjE8VK4vj37zh8Nw4CZLDkvzLprv4Zt4O//hhtGa40pivLUmf92Ndu6N/PEl774Nz/YxLseBhFFXI3ZF39rFsF2j6Xu0uLFhWvoLohBQqeygwgsGOTx46rW/tGzW382DCN/4rBy6IlZz0zevQoMgps4e4vPg5HyNtCN82ndTxz78hcfe24Vb3kYRBQ5+vKlQqn9UzH9JJNHlMf+aY7cHw6mofxGDBJKtfUqdA+rmB5skFMHt0GgiO0l8ZUW2iUG8YUmVDeJQUKlroMK2wOD7M6jifGO2w+SnzysKI+/ZvpBYFel3Q8C/tdfCf+rxwYxKr96UlGECSOLzIX5gbeIQWRkwvudGCS8uutB8h4YxBDPuPZiHqyc+DvHOdK6N3PMuxdTm39uTHKOIINIblFc4yiHnrDPhoCssL879szbpj+FGKQH/YXgEWKQECipfxF7YRDDKCe+O6YoR56dzCzlcksL+vPfUhTl6Mu/s/dZefE/4ADIN4/r2ZVcbikT+/4RRVG+42zW8rVTY4oy9syPMplMTrhUiv8JZshXjkWT83CERJwHefy5VWtLmBikf7UGqSQxSJC0MXBZemMQw+DbKz+PPP2Nw7BjAmdStYXbNn0Iobh0JvXw0X+OTF+6i8fJTJFb9+af/zaQyJFjUxv/axYxz6TiMdavHfvexFvyn94Rgwxc20OpkBhkKLBTo4TAiCBADDIiiqRuEAJDQYAYZCiwU6OEwIggQAwyIoqkbhACQ0GAGGQosFOjhMCIIEAMMiKKpG4QAkNBgBhkKLBTo4TAiCBADDIiiqRuEAJDQYAYZCiwU6OEwIggQAwyIoqkbhACQ0GAGGQosFOjhMCIIEAMMiKKpG4QAkNBgBhkKLBTo4TAiCBADDIiiqRuEAJDQYAYZCiwU6OEwIggQAwyIoqkbhACQ0GAGGQosFOjhMCIIEAMMiKKpG4QAkNBgBhkKLBTo4TAiCBADDIiiqRuEAJDQYAYZCiwU6OEwIggQAwyIoqkbhACQ0GAGGQosFOjhMCIIPAwGIRX8+8k9SmVsUiEMU1Pzq1VpXSHnx9ytRs6Uxd8czu37me1qL76p0EJU06/xGZvDqWXg+lC7ZrOJpd9sfqMDbTuL2pRfdmduPvAdfLqyhmNMTZxQeTZPHAFVGBfBFofJRk76KQYPINUF19nbDKzWqxW6/V6tZq/nNSibOrS56T42jXdbqsLgxi8Wtos1ff2RbXHBz5vBmndn9fiG81Wj+Lt/xhvlAqlgRG9rIWBMAgM7nFt4Xb9s6hMlmp/RB69J1ofpRmb3vj0QD0fNIPgu11b/sQlROVaXI/nHsb7zdUMXPDimw5bdWOQtpKf7cbnzSC7N+IsNkgG+Wzd95R2aWEgDLL3QZKxzNZfPA0d6NIl1YFKPiIPt+6lGZvdHDKD3EuzcS+DeBTAd3Lp18AihSVOYmmrZv4OhnRseXt7KXFaxd+yW5/y2q2MPsUYU6cS6zuOyVAvXk7ifabGksu361hFfeWnEfODQACDTC6UKoX0a1Ahm4zbyRylVQzPn2VTF0rVTdEQ0/TMprO64ZX3TQH0xOp2ZX3mpLpg5o6WuyUYpFpEg4sxVU+s7ict8F3+DWi6eFlXoyZofGc9M6upUQBgOi132WmuclGz+5n6EO8/KC2e0TUoBcvG5Y89OSvtsh27Y69iKhc1z3KmckWzF4M9iOfVAjLI9Oon1ZUzOvRL1VKLUsZMvr3ytpBc1WYym3/yWQlWLqpWfyPRt+5iZ+qwUp6A/qpafO66bD35/uSVCirp0HTr/rwaTRXKhcRpFv3lppzcU+AoBrAaZbhIz2x84iOzYRi1qxqLLZdK5nhWteTyx+aT8NPkspVC2DAai5o1AHAWrG5vZrQom36vbhjFxIssdbOaPydQ0qbTcvJQ386CmLt3lpLTGgMZVW1mbrNiC8lrt7JJnGJsUk8tbtuWbOteRo3Obv5Z9LLHfwdtgxi8lH4lwiaTq8Vq05ZZEqZ1fyl2kk1fKlV3ebOxDYvbybm7KDRMeKbFBUAPSunTEewhjrZGIfEim74umIIXz2lMja9+XG8261XAWpu7jY3x6uJP2NSlKscrUaGeyG5WYEGVP6tFWGoL2/IwiAMlr668zqIz5ut9705GHVdT16v1ZhMoRtfUqNaBQSKaHk+tlKClraXYycjUpf2kNYC8ojE9OV+o1usgciMXO8mm0gUEp7T4OovG7FTVEogGL55To7HV+p7o9fb8j9nETG671uTNevFynDF/Eu/SHZtBTCvScVvUAFLhfehRPLcWkEE04LXbsK4t/zapjqtzfxDdAX1FY0tbIDlMEsZSfu9AXrsRZyy5+WehWF58U2WTyY1P6lBsKwsjyh4bnX5yS2UYHZsWAuvx5OrHplpk6A2OQ/FCCcZEvVp8V2eqOahcjxkGQOq8+Zrld3X7Db8Pg0zq8eRSqSKWbKX0SxH75ccbhcTLljrA4u6Aw4P8zIvq7HvbAFADgVXnREb03VtJxjQxpOt3c1Cb5WFA6kwOm0EMg+8U0q8xfGnA+zCzWNiu4UBHgMvnVRf7QldZCn2QOOEdI6p8nkVO2YYrTra3tqCOB+szJ80iWCVOp5lNpFIc7hYiUOG45MOTmN7DIOOSE3H3VtwymMHujUqLhcoVLRLxnZzl9EuR6Ftb1vsKC4rXVzdpoVPjk46vV4DjLPdgxvoSllE5r9qCoYUfl5avNaAe810tj+pu3bEZxDAq8z9m0yb9uV6PPYvn0kLr/tLkC2z2pm0WldOviLersXfH47pzNy3J7lrFNNZiJ1nqQ2dQOXZTl58Ml1Rdmm4TWJJDDDguiAwvHqzFTtqE6Hqydk2PRCTHJFKPwKEbg8Cg1STHMzCINLQMxyTs3FnkAtmj0azv4CsKQZhwBqqBwNqv1UUt6s+Gro65LgZug1i188Z2YWMpk9K1aCQSUWffE3ZmfeWnnsGNVgO+4mDCq3P2/IFhIb2BYTL/EhjE9Pc4Cw1j7wN7zrtGiahQUC/IhcoWFoSHQUTNQnYTU1hyw1SUnf+t+9nJFzoxCJu+bk8So3yeRZHUukqLtOjYye3g4IwCU9b7kRnEmT/WU9C6BJ11u1t3JAbBMWoVF2MdldK7eC4tiFe6NCWEnQidgskgcbdhGMVz/gsHmUHaHX74K5jfXX4CbYJ9anr0uzRtCuz25VkYwv81a4Fgra3Y3G35d/M72iDmmx9vQcfFcNqHQZhcqpR+yTW0kPv26ywvowmfXM6XqoI6hFDIYuKFbUqJbynhuMSOpw7obHpoDGLKB6vNev6cFjF3iRy+sB5wxiVOeOeFjAyyYa8VbQaB4TIegRWw84lEwMTFOS+NEk+FvTIIvBgFjmKsS7tIEtyW/OJ/ryfVZpCu0goGQcMKqqku/iQCG+DSJxKJmCsId3syg7TzReUiGHo2F1tFu3VHZhAcSeLlCaRjLcd6F881V0VtvgwCZmZbh/24T7wqTYPU5gurXw5xdPnJwyBdmm4T2G4HvuC7BxYI5iKdgxHdkUEkA9MwpKHexQ/iPYIADCLPeZslu3bWMDhsg+pTiPBkcvk2vt7gJepBHM5cmPKDkW5b/a5ed74YPIPwpmTimQ3j+hmldEC0ZHKGtWfCd2IQRFBf/qTu+pitusaup8KDMwjWJh1AMH0EPm+njgzSVVoPgwA4E29tuvpVb/q6k2QGOYANYns0EH25OzKDCB/B9PUG+mXsZWDv4rm00DYhhcZtG2Rhq+bqsW+HcbaYg9ueQtYQEvwCr5AuP3kYBG0Q/6bbBLbbgS9etBtLsResGeh6UPhBZGsCOy7MbTeDYIumbesdtEabDQLbUl1sEK8jgze28+c0c5tW2CDXXYDX6/YQsxc77p50uxowg8BKW/YpiKb3wMdrAtTmB3HWtB7sOjGIgV4iyxWHLfCm5U92jV1PhQdnEJzhpocFGqpd7eIHcZ0os22QrtJ6GMSoXATvhm12gQH3wFnty3qUGcR8FzmbcADChJ8fBBy3HbrjZhBYX0RnCuXf6vJCsmfxXFpom5AOg6BB7hrx/IE9muXuumwQ1KPLD+I4aOAd2+En9yqmS9NtArskKYMHynFvo2usI4P4+UFAoYC2dNYRNGjtYHoHLTBImx9EmDadO8sb1VLFWVML7y9OGZdqsGPcH3FXp7tcDJhBxG5CJBrLrBa34UhZdbu0kdEnIhMJ4ek0jIa5F1Pf4xz2YlRmWXoe7DoyCOxEwA7OZqXOebO+U0ifZlNpsUGINs7MarUGiz9PhQdnEDFwtbmbVdjk2MrGp51tVzeoHW0QOKLSUVovg4i9GLFRJXZV1Oj0huTxsRtFd1oK9pj2DIODu2QisVqtAR7FyzrrcLIQuca/Ox4GEbNI10yXp9ku2pI9iOfSQtuEdBhEGDsTCdxF4vXqZjZ2UpUtdru/sg2CkKo4AJqcwx5Z7KTtqQW3eoefXFJ1abpNYFsK+IKS6Au365zXtzeS8XQWdgkvydvJ5vMAqXleAcREQ8CkS9w3NTcQeaOA+/ddbJAI7FjDIOT1u0szJ21vTsfO7t1JqlF94Wa1DgiJ7TlzjwL3YvS5m9X6HmyGrp11XFGt++uZTE5sjLr63O1i4AwCW5Klpbk4HNbABRecal9x9pzhveo6D7J8d9dC3L0C7MwghmFY50EiDDdiS/Z7e/cWbKQzFZbxn51BDIOXryQ1OHegTac3qlXYHPGcl0PpuzBIF2nbGATAEedBIhHYxu941sBorCdOg1QpscchnwfpUqpzdzwMYjplmJe/ehRP1kLbhJQZxDAemOdB4NxCLLlwU/b7OSPXzSAAKSzyrfMgCzflCdzxJ1kqqLpD020CO2Lgt3rROpoxO19qtHj5Cuza4tkN15MC0lI5l5yG40hwHsQ5OcKLl+N4fkfVE8t4zqgLg7DU9Wr+nHi+7TyIPw68cisTN/+yBAbSqtS0dR4EjrNMp3P2BES7TN7BcXWnw8XDYJAOTYX0trxzh6+Og0IcrH6PWHeCBa5bmjZSdv/c65XXk9pruc/pOWKQrkDDEawomP1weminNP+ay4/QtWgQfxyx7gQRYkkmYhAJjEf3q2UNwv6xFu9wzDw88IxYdwINPDFIoNVDwhEChEAAEKBVTACUQCIQAqFFgBgktKojwQmBACBADBIAJZAIhEBoESAGCa3qSHBCIAAIEIMEQAkkAiEQWgSIQUKrOhKcEAgAAsQgAVACiUAIhBYBYpDQqo4EJwQCgAAxSACUQCIQAqFFgBhkGKorn7eD5fo33/oowTQplrf/U967vFHKLWSS8MlkVwaYDcfb0MO9hhgCPUcMP9DDD1fuR7N2YhBT783y+5k4RMfHv8Pu9gfyAxgovFGt7vqHDhK1d2QQXi2UfMKmQtCaW5nkfMFOMdHcKWRSctoKU2wIem4Fx7d6Ul/7uR1gxbrX///wx/tW5HSoBQMXu2IRw5/qSwFxvU0djBS4FUMYwkoUnJwG3lp9rnl1zUk0sWBnHYHQAe/Yf0ovJdzo+DwErMDUEHbASp/WRvQWMQgotpk/q7LJ+HJ+G8K/VbcLl+PwJ7kig8QwNN+JQfbuJCYSdkR4R7LW/aXkYpUbvHItE4/H40kMLMIri2fao6VCoB059ururQTT5kQSDKfGz/CtclGT06zAH5gxOygOxIeBcMoi7L5vKwdjEKeKykVNDnbt/OD/jefPqtEZK9HEWcjtIqLMYGCapS0I11RdO6tagHd8vnYjDjkJZlU5Xrd/myN4lxjEEDkHZj2hwGo3MnMrZtya2h0zaRCb1O3kRsVzbOpCIf+2rmmqqupzN8E02LuTYJoTLBqjy0Hk/r0PEtGZXGFZh4w+n0Ikd2sO88oVyArKVD31XjV/zgxrLBikVMiKbFsiyRAGARWRiV2RASFz1bmFu3+B8FnT8xirzeKO1r3sXHs2XwgTp5txkngx8YqasrLt2O/kKTsTGMxnp7naNd1kBwixl1rPQ64WM+uVNT0wioqdNIDn31CT8xlNtyMDVuZ/aAUibJQWz2B6LVWbnbcSKSGDrBZzZuKxmaUtEcDRMQEgK5iZ58miG5j24xDSygxBCPG97RA+Vg2WhPh/PX9OstEgyLDoZin9ipRhw6ofDBP/53nlFkgOcSExl4CrkdG/IAbBRJldXokiYtUCZoHDfD/mfCufZ4zpIuoUptHCHB+QcMux2Pc+SIg4oxD9CXK1QaA6w3AYBCdbHONHmcHQRKgrzIGszV4CX4ZIMiTSo9Su6tFfttsgxUz2LvDIWSk7iTl2y9msj2kNQRIhICsvn9esAJSQvmgiUcDEtJgeSbyTuzGIiln12pZjvJh40QIBvs9u/qmUfsWMsod4CjdHZf7HkM0LyvPqys9VV14rkfQP7kOWD96CILXRmQ0Uj9duJDUdTQZnhjfzb9hZESD831Ra9AVjiEmRTX0ndeujtCqoH+jVYUzInvNDqy9SSed56yYxiIXEI/c/WPXtIepsGHBkOKkPbRNdxFK2Ukw116xKYE6aGX0giKHECPZr2WEQiF3s2PNOKiZkEDvuPtQjUi74MwjPZ5bqhtFce0Me+qIHlaUFR3i7UyK0ajyd1NAmgvsQxVsK4AhJDPCyI4N0SgAKdaHAkCWjdS+tgvUB+T1NEoTcphBNGn7SnEUWkKlwjkCLTmpRtLwACoG8FVLb6oovg0BfJDIFFpNzOFll7f/5NnAZxovEXE1ygHUITSxnt0KsnOftOohBbCgetS/dGQSiz9tpiiAdKaS8BoO8fN4VD734pplMCN+xSBYwjs2QiGJVYidwsVYxzkxD0GXGce3F2DL4M4jh2CBSWhahR38bBBZc9zKTLzguTxRbJiCgM0jQ0Y1BOgZ83L1hBnmvXNEEerVrOoaPx1TBmBAPnhm3cjaJ/0XSH2hRSsEH6wu0WR5ASG2m6snMUqFkhVP1YxD03bprtlOitI/uRil9Wp21QiXvzyDu5+36iEFsKB61LyJDZfvSQODQlUGkVDI2g4i8JKkPOcTLtlIreDyjg2YQxw+ip7EjvLr4M3CO+vtBzJ65jI7BMgjyzuzmp/WVn5pLAKhfW97ZK6VfMi0dm2W8A06Qgp28wmYQeI7Xd0rryxl9gpmLLz8GwUTWPe0H851cfEoTPixTjLZVjLws9Xnekp4YxELi0fsfQ1RLRi8iULsW1zBDhd8qBmapexXjMmTQ3bi+dsZJXNCBQQxIPuKsYpwcl57n97NBYMfU3It5P5Ochb0Y8K1Y/lR/lXqXLS5CMcQq5o/CBnFmIyy7nHzAHW0QDPUenbu5nnjRXruV069M5/JZbcJcI7TupRmT94CsINBACo4vE1cxooiUygxSxmLrvgyCXZMSpFs1e4BorMWn9IWPPX6ccpsn1TLN/J83KyUG8aD7SF3ibq6qL9zchuzy1e38O5AXxhxbYucCxxnfyc28rIpdXvCkqvoyelj37mW1qMRBmApITunuYQTLBhHbQEncBsJNmQnbb9JhFQNOhGX0JnoV5DkPwncKWb/zIE4xD4NgInjbkwo5boT3UbhFxWZNA9YRvTEIuC00TZuwrDDYxH2TaZrmZcwLmAmE1/NnLf8RkAKbSginaX3tLEO/EjpKL5SEH2T3TkabQPZxGASXhBfuIs2IZOyreDqGV67FTS+p03nIFwH+r0vg23Y++AC6mc3dXPDvCrOu8/NYvFk8B3vYzT24wmp45f2l1bKHnlwSjMQF7cWYasQTZZhfQ2QJ2pTOJu06u7nxOSuhCbBAGndzcS/WZQkbsNqXN006MYhhNIvv4qbjJCQBkjyv/gwCaWJeZkz17j2LTogzqRn8LKztdybVyyCwIWLv5uoJKY/PrYw+oWqaHk+vl1ZnemQQsB3GI7KLGlxI464UsEajNP8z3M2FxCXW2S0ghdR60dxB12aWzBxImBNHjcKZP01PrgrbwWEQQ6SDicbQO8vtBCtMm8lutmftApb3+EpsR3LdVApIJTZ0RNp23+eLiRfd982ky+Bct1IOjwRX+HeCGMQfl/3v2naE36PVxZ9orrycfg+13YMxN9t+fKPtObpBCAQGAWKQflXRkUF4E5KY7XcAQTSLua/NQyVgmctLoX4F61ouFos9/6h+rl692hUb+rEfBIhB+kENyvgzCGQFZ2pMOuy4T/288n4GM4RiVsTbUrbkfQrSz4RAEBAgBgmCFkgGQiCsCBCDhFVzJDchEAQEiEGCoAWSgRAIKwLEIGHVHMlNCAQBAWKQIGiBZCAEwooAMUhYNUdyEwJBQIAYJAhaIBkIgbAiQAwSVs2R3IRAEBAgBgmCFkgGQiCsCBCDhFVzJDchEAQEiEGCoAWSgRAIKwLEIGHVHMlNCAQBAWKQIGiBZCAEwooAMUhYNUdyEwJBQIAYJAhaIBkIgbAiQAwSVs2R3IRAEBAgBgmCFkgGQiCsCBCDhFVzJDchEAQEiEGCoAWSgRAIKwLEIGHVHMlNCAQBAWKQIGiBZCAEwooAMUhYNUdyEwJBQIAYJAhaIBkIgbAiQAwSVs2R3IRAEBAgBgmCFkgGQiCsCBCDhFVzJDchEAQEiEGCoAWSgRAIKwLEIGHVHMlNCAQBgf8HsFCxRUZKuL8AAAAASUVORK5CYII=;" parent="7026571954dc6520-1" vertex="1">
                    <mxGeometry x="342.5" y="2250" width="363" height="140" as="geometry"/>
                </mxCell>
                <mxCell id="HfkqlQolLGmeF4xIkLHq-1" value="&lt;span style=&quot;font-weight: normal&quot;&gt;Title&lt;br&gt;descriptiondescription&lt;/span&gt;&lt;span style=&quot;font-weight: 400&quot;&gt;description&lt;/span&gt;&lt;span style=&quot;font-weight: 400&quot;&gt;description&lt;/span&gt;&lt;span style=&quot;font-weight: 400&quot;&gt;&lt;br&gt;&lt;/span&gt;&lt;span style=&quot;font-weight: 400&quot;&gt;description&lt;/span&gt;&lt;span style=&quot;font-weight: 400&quot;&gt;description&lt;/span&gt;&lt;span style=&quot;font-weight: 400&quot;&gt;description&lt;/span&gt;&lt;span style=&quot;font-weight: 400&quot;&gt;description&lt;/span&gt;&lt;span style=&quot;font-weight: 400&quot;&gt;&lt;br&gt;&lt;/span&gt;&lt;span style=&quot;font-weight: 400&quot;&gt;description&lt;/span&gt;&lt;span style=&quot;font-weight: 400&quot;&gt;description&lt;/span&gt;&lt;span style=&quot;font-weight: 400&quot;&gt;description&lt;/span&gt;&lt;span style=&quot;font-weight: 400&quot;&gt;description&lt;/span&gt;&lt;span style=&quot;font-weight: 400&quot;&gt;&lt;br&gt;&lt;/span&gt;&lt;span style=&quot;font-weight: 400&quot;&gt;description&lt;/span&gt;&lt;span style=&quot;font-weight: 400&quot;&gt;description&lt;/span&gt;&lt;span style=&quot;font-weight: 400&quot;&gt;description&lt;/span&gt;&lt;span style=&quot;font-weight: 400&quot;&gt;description&lt;/span&gt;&lt;span style=&quot;font-weight: 400&quot;&gt;&lt;br&gt;&lt;/span&gt;&lt;span style=&quot;font-weight: 400&quot;&gt;description&lt;/span&gt;&lt;span style=&quot;font-weight: 400&quot;&gt;description&lt;/span&gt;&lt;span style=&quot;font-weight: 400&quot;&gt;description&lt;/span&gt;&lt;span style=&quot;font-weight: 400&quot;&gt;description&lt;/span&gt;&lt;span style=&quot;font-weight: 400&quot;&gt;&lt;br&gt;&lt;/span&gt;" style="text;html=1;points=[];align=left;verticalAlign=top;spacingTop=-4;fontSize=20;fontFamily=Verdana;fontStyle=1" parent="7026571954dc6520-1" vertex="1">
                    <mxGeometry x="512.5" y="1310" width="440" height="150" as="geometry"/>
                </mxCell>
                <mxCell id="4" value="" style="verticalLabelPosition=bottom;shadow=0;dashed=0;align=center;html=1;verticalAlign=top;strokeWidth=1;shape=mxgraph.mockup.graphics.simpleIcon;strokeColor=#999999;fillColor=#ffffff;rounded=0;labelBackgroundColor=none;fontFamily=Verdana;fontSize=12;fontColor=#000000;" vertex="1" parent="7026571954dc6520-1">
                    <mxGeometry x="805" y="740" width="170" height="80" as="geometry"/>
                </mxCell>
                <mxCell id="3" value="" style="verticalLabelPosition=bottom;shadow=0;dashed=0;align=center;html=1;verticalAlign=top;strokeWidth=1;shape=mxgraph.mockup.graphics.simpleIcon;strokeColor=#999999;fillColor=#ffffff;rounded=0;labelBackgroundColor=none;fontFamily=Verdana;fontSize=12;fontColor=#000000;" vertex="1" parent="7026571954dc6520-1">
                    <mxGeometry x="627" y="740" width="170" height="80" as="geometry"/>
                </mxCell>
                <mxCell id="9" value="" style="verticalLabelPosition=bottom;shadow=0;dashed=0;align=center;html=1;verticalAlign=top;strokeWidth=1;shape=mxgraph.mockup.graphics.simpleIcon;strokeColor=#999999;fillColor=#ffffff;rounded=0;labelBackgroundColor=none;fontFamily=Verdana;fontSize=12;fontColor=#000000;" vertex="1" parent="7026571954dc6520-1">
                    <mxGeometry x="270" y="840" width="170" height="80" as="geometry"/>
                </mxCell>
                <mxCell id="10" value="" style="verticalLabelPosition=bottom;shadow=0;dashed=0;align=center;html=1;verticalAlign=top;strokeWidth=1;shape=mxgraph.mockup.graphics.simpleIcon;strokeColor=#999999;fillColor=#ffffff;rounded=0;labelBackgroundColor=none;fontFamily=Verdana;fontSize=12;fontColor=#000000;" vertex="1" parent="7026571954dc6520-1">
                    <mxGeometry x="448" y="840" width="170" height="80" as="geometry"/>
                </mxCell>
                <mxCell id="11" value="" style="verticalLabelPosition=bottom;shadow=0;dashed=0;align=center;html=1;verticalAlign=top;strokeWidth=1;shape=mxgraph.mockup.graphics.simpleIcon;strokeColor=#999999;fillColor=#ffffff;rounded=0;labelBackgroundColor=none;fontFamily=Verdana;fontSize=12;fontColor=#000000;" vertex="1" parent="7026571954dc6520-1">
                    <mxGeometry x="805" y="840" width="170" height="80" as="geometry"/>
                </mxCell>
                <mxCell id="12" value="" style="verticalLabelPosition=bottom;shadow=0;dashed=0;align=center;html=1;verticalAlign=top;strokeWidth=1;shape=mxgraph.mockup.graphics.simpleIcon;strokeColor=#999999;fillColor=#ffffff;rounded=0;labelBackgroundColor=none;fontFamily=Verdana;fontSize=12;fontColor=#000000;" vertex="1" parent="7026571954dc6520-1">
                    <mxGeometry x="627" y="840" width="170" height="80" as="geometry"/>
                </mxCell>
                <mxCell id="13" value="" style="html=1;verticalLabelPosition=bottom;labelBackgroundColor=#ffffff;verticalAlign=top;shadow=0;dashed=0;strokeWidth=2;shape=mxgraph.ios7.misc.scroll_(vertical);fillColor=#a0a0a0;fontSize=20;fontColor=#0000FF;" vertex="1" parent="7026571954dc6520-1">
                    <mxGeometry x="984" y="740" width="4" height="30" as="geometry"/>
                </mxCell>
            </root>
        </mxGraphModel>
    </diagram>
</mxfile>